<?xml version="1.0" encoding="UTF-8"?>
<svg xmlns="http://www.w3.org/2000/svg" xmlns:xlink="http://www.w3.org/1999/xlink" width="700px" height="700px" viewBox="0 0 700 700" version="1.1">
<g id="surface1">
<path style=" stroke:none;fill-rule:nonzero;fill:rgb(0%,0%,0%);fill-opacity:1;" d="M 306.835938 187.136719 C 307.535156 188.765625 314.300781 214.199219 321.765625 243.601562 C 329.464844 272.765625 336.464844 297.5 337.164062 298.433594 C 339.035156 300.066406 339.265625 300.765625 324.335938 239.636719 C 318.035156 212.800781 312.664062 189.464844 312.664062 187.601562 C 312.664062 185.734375 311.035156 184.335938 309.164062 184.335938 C 307.300781 184.335938 306.363281 185.734375 306.835938 187.136719 Z M 306.835938 187.136719 "/>
<path style=" stroke:none;fill-rule:nonzero;fill:rgb(0%,0%,0%);fill-opacity:1;" d="M 384.066406 224.464844 C 365.636719 291.664062 364.234375 297.265625 365.164062 298.199219 C 366.101562 299.136719 366.800781 296.800781 384.765625 236.363281 C 399.464844 187.601562 400.398438 184.335938 397.136719 184.335938 C 395.964844 184.335938 390.136719 202.535156 384.066406 224.464844 Z M 384.066406 224.464844 "/>
<path style=" stroke:none;fill-rule:nonzero;fill:rgb(0%,0%,0%);fill-opacity:1;" d="M 350 255.964844 C 350 277.199219 350.464844 294.234375 350.933594 293.765625 C 351.398438 293.300781 352.566406 275.800781 353.5 254.800781 C 354.664062 227.734375 354.433594 217 352.566406 217 C 350.699219 217 350 229.136719 350 255.964844 Z M 350 255.964844 "/>
<path style=" stroke:none;fill-rule:nonzero;fill:rgb(0%,0%,0%);fill-opacity:1;" d="M 231 227.964844 C 231.234375 230.765625 307.535156 309.398438 308.699219 308 C 309.863281 306.835938 236.601562 228.199219 233.101562 226.800781 C 231.933594 226.335938 231 226.800781 231 227.964844 Z M 231 227.964844 "/>
<path style=" stroke:none;fill-rule:nonzero;fill:rgb(0%,0%,0%);fill-opacity:1;" d="M 431.433594 269.964844 C 388.5 313.601562 393.636719 310.335938 445.199219 261.101562 C 462.464844 244.765625 475.535156 231 474.363281 230.300781 C 473.199219 229.601562 453.835938 247.335938 431.433594 269.964844 Z M 431.433594 269.964844 "/>
<path style=" stroke:none;fill-rule:nonzero;fill:rgb(0%,0%,0%);fill-opacity:1;" d="M 284.664062 234.5 C 284.664062 236.601562 316.636719 292.363281 320.835938 297.5 C 322.933594 300.066406 319.664062 293.300781 313.835938 282.335938 C 308 271.363281 299.835938 255.964844 295.636719 247.800781 C 289.566406 235.664062 284.664062 229.835938 284.664062 234.5 Z M 284.664062 234.5 "/>
<path style=" stroke:none;fill-rule:nonzero;fill:rgb(0%,0%,0%);fill-opacity:1;" d="M 398.066406 267.398438 C 388.035156 284.664062 380.101562 299.363281 380.800781 299.835938 C 381.5 300.535156 417.664062 243.136719 419.535156 237.765625 C 420 236.601562 419.535156 235.664062 418.363281 235.664062 C 417.433594 235.664062 408.335938 249.898438 398.066406 267.398438 Z M 398.066406 267.398438 "/>
<path style=" stroke:none;fill-rule:nonzero;fill:rgb(0%,0%,0%);fill-opacity:1;" d="M 235.664062 282.101562 C 235.664062 283.5 270.898438 304.734375 297.035156 318.964844 C 297.964844 319.433594 298.664062 319.433594 298.664062 318.964844 C 298.664062 318.265625 286.066406 310.101562 270.664062 300.765625 C 255.035156 291.433594 241.964844 283.035156 241.265625 281.863281 C 239.636719 279.300781 235.664062 279.535156 235.664062 282.101562 Z M 235.664062 282.101562 "/>
<path style=" stroke:none;fill-rule:nonzero;fill:rgb(0%,0%,0%);fill-opacity:1;" d="M 434.464844 301.464844 C 418.835938 310.566406 406.234375 318.5 406.933594 318.964844 C 408.335938 320.363281 466.433594 288.636719 466.664062 286.300781 C 466.664062 283.265625 463.398438 284.664062 434.464844 301.464844 Z M 434.464844 301.464844 "/>
<path style=" stroke:none;fill-rule:nonzero;fill:rgb(0%,0%,0%);fill-opacity:1;" d="M 184.335938 303.335938 C 184.335938 304.5 187.835938 306.363281 192.035156 307.535156 C 292.601562 334.601562 290.734375 334.136719 295.398438 342.535156 C 308.933594 367.734375 344.164062 379.863281 374.5 369.601562 C 385.234375 365.863281 404.835938 349.535156 409.734375 340.199219 C 411.363281 337.398438 425.835938 332.964844 462 324.335938 C 520.566406 310.566406 518.699219 311.035156 516.835938 308.234375 C 516.136719 306.835938 511.234375 307.300781 504.464844 309.164062 C 498.398438 310.800781 474.835938 317.101562 451.734375 323.164062 L 409.964844 333.664062 L 402.035156 324.566406 C 390.363281 310.800781 369.136719 301 351.164062 301 C 333.199219 301 311.5 311.035156 300.765625 324.101562 L 293.765625 332.964844 L 240.800781 317.101562 C 211.636719 308.234375 187.136719 301 186.199219 301 C 185.035156 301 184.335938 301.933594 184.335938 303.335938 Z M 377.066406 314.535156 C 390.601562 321.535156 402.265625 334.363281 400.164062 340.433594 C 398.300781 346.734375 380.101562 360.5 369.363281 364.234375 C 358.863281 367.734375 336.933594 365.863281 326.433594 360.5 C 317.101562 355.835938 301 340.898438 301 337.164062 C 301 333.199219 309.164062 326.433594 311.265625 328.300781 C 312.199219 329.464844 312.664062 328.765625 312.199219 327.136719 C 311.964844 325.265625 313.601562 322.699219 316.164062 321.300781 C 318.734375 319.664062 321.300781 317.800781 322 317.101562 C 322.699219 316.398438 327.363281 314.066406 332.5 311.964844 C 344.398438 306.835938 364.464844 308 377.066406 314.535156 Z M 377.066406 314.535156 "/>
<path style=" stroke:none;fill-rule:nonzero;fill:rgb(0%,0%,0%);fill-opacity:1;" d="M 335.300781 317.566406 C 326.664062 324.101562 322.699219 338.101562 326.898438 346.5 C 340.433594 374.265625 382.664062 362.835938 377.066406 332.964844 C 373.800781 315 349.535156 306.136719 335.300781 317.566406 Z M 365.636719 322.464844 C 376.136719 332.265625 374.035156 349.535156 361.433594 355.835938 C 349.535156 362.136719 338.335938 358.398438 332.5 346.035156 C 322.464844 324.800781 348.363281 306.363281 365.636719 322.464844 Z M 365.636719 322.464844 "/>
<path style=" stroke:none;fill-rule:nonzero;fill:rgb(0%,0%,0%);fill-opacity:1;" d="M 341.363281 327.136719 C 336.464844 332.5 334.601562 345.335938 338.566406 345.335938 C 339.734375 345.335938 340.664062 342.765625 340.664062 339.734375 C 340.664062 333.433594 346.265625 326.664062 351.398438 326.664062 C 353.265625 326.664062 354.199219 325.5 353.5 324.335938 C 351.164062 320.601562 346.5 321.535156 341.363281 327.136719 Z M 341.363281 327.136719 "/>
<path style=" stroke:none;fill-rule:nonzero;fill:rgb(0%,0%,0%);fill-opacity:1;" d="M 217 347.898438 C 217 349.066406 234.5 350 256.199219 349.765625 C 277.664062 349.765625 294.234375 349.300781 292.835938 348.835938 C 287.234375 346.964844 217 346.035156 217 347.898438 Z M 217 347.898438 "/>
<path style=" stroke:none;fill-rule:nonzero;fill:rgb(0%,0%,0%);fill-opacity:1;" d="M 408.566406 350.933594 C 410.898438 353.265625 483 354.664062 483 352.335938 C 483 350.933594 469.933594 350 445.199219 350 C 424.433594 350 408.101562 350.464844 408.566406 350.933594 Z M 408.566406 350.933594 "/>
<path style=" stroke:none;fill-rule:nonzero;fill:rgb(0%,0%,0%);fill-opacity:1;" d="M 282.335938 365.398438 C 275.335938 367.035156 250.601562 373.101562 227.734375 378.699219 C 202.066406 384.765625 185.265625 390.136719 184.800781 392 C 184.101562 394.101562 185.035156 394.566406 187.363281 393.636719 C 189.464844 392.933594 216.066406 385.933594 246.636719 378 C 276.964844 370.066406 302.398438 363.300781 303.101562 362.601562 C 304.964844 360.964844 295.636719 362.136719 282.335938 365.398438 Z M 282.335938 365.398438 "/>
<path style=" stroke:none;fill-rule:nonzero;fill:rgb(0%,0%,0%);fill-opacity:1;" d="M 399.234375 364.933594 C 401.566406 367.265625 513.800781 399.234375 514.964844 398.066406 C 515.898438 397.363281 515.898438 396.199219 515.433594 395.734375 C 514.035156 394.566406 403.664062 364 400.636719 364 C 399.464844 364 398.765625 364.464844 399.234375 364.933594 Z M 399.234375 364.933594 "/>
<path style=" stroke:none;fill-rule:nonzero;fill:rgb(0%,0%,0%);fill-opacity:1;" d="M 271.835938 392.234375 C 252.699219 402.5 235.898438 412.066406 234.5 413.234375 C 229.363281 418.363281 238.234375 414.636719 259.699219 402.5 C 281.863281 389.898438 282.566406 389.664062 289.335938 393.164062 C 293.300781 395.265625 296.335938 396.199219 296.335938 395.734375 C 296.335938 395.035156 293.535156 392.933594 290.265625 391.300781 L 283.964844 388.035156 L 294.933594 382.433594 C 304.035156 378 310.566406 373.335938 307.535156 373.335938 C 307.066406 373.335938 291.199219 381.734375 271.835938 392.234375 Z M 271.835938 392.234375 "/>
<path style=" stroke:none;fill-rule:nonzero;fill:rgb(0%,0%,0%);fill-opacity:1;" d="M 389.664062 374.265625 C 389.664062 374.734375 395.035156 378.464844 401.566406 382.433594 L 413.234375 389.898438 L 407.863281 394.566406 L 402.5 399.234375 L 409.5 395.5 L 416.734375 391.535156 L 439.601562 406 C 452.199219 413.933594 462.933594 419.765625 463.863281 419.066406 C 465.5 417.199219 467.601562 418.601562 431.664062 397.363281 C 395.5 375.898438 389.664062 372.863281 389.664062 374.265625 Z M 389.664062 374.265625 "/>
<path style=" stroke:none;fill-rule:nonzero;fill:rgb(0%,0%,0%);fill-opacity:1;" d="M 274.636719 420.464844 C 233.566406 459.199219 222.136719 471.335938 227.5 471.335938 C 229.136719 471.335938 325.734375 375.898438 324.101562 375.664062 C 323.398438 375.664062 301.234375 395.964844 274.636719 420.464844 Z M 274.636719 420.464844 "/>
<path style=" stroke:none;fill-rule:nonzero;fill:rgb(0%,0%,0%);fill-opacity:1;" d="M 378 378.933594 C 378 380.101562 386.164062 389.664062 396.199219 399.933594 C 406 410.433594 426.535156 431.664062 441.464844 447.535156 C 456.398438 463.164062 469.234375 475.300781 469.699219 474.363281 C 470.398438 473.433594 449.863281 451.035156 424.433594 424.664062 C 399 398.300781 378 377.765625 378 378.933594 Z M 378 378.933594 "/>
<path style=" stroke:none;fill-rule:nonzero;fill:rgb(0%,0%,0%);fill-opacity:1;" d="M 308.699219 416.964844 C 298.433594 433.535156 287.933594 450.800781 284.898438 455.464844 C 282.101562 460.363281 280.699219 464.335938 281.863281 464.335938 C 283.265625 464.335938 291.433594 451.964844 300.066406 436.800781 C 308.933594 421.863281 316.636719 409.035156 317.335938 408.335938 C 318.035156 407.636719 320.835938 402.734375 323.863281 397.136719 C 334.136719 378 326.664062 387.566406 308.699219 416.964844 Z M 308.699219 416.964844 "/>
<path style=" stroke:none;fill-rule:nonzero;fill:rgb(0%,0%,0%);fill-opacity:1;" d="M 334.136719 402.964844 C 316.636719 458.734375 301 514.035156 301.933594 515.199219 C 304.5 517.535156 306.136719 513.566406 315 481.363281 C 319.898438 463.636719 327.601562 435.636719 332.265625 419.066406 C 341.136719 386.863281 342.300781 376.363281 334.136719 402.964844 Z M 334.136719 402.964844 "/>
<path style=" stroke:none;fill-rule:nonzero;fill:rgb(0%,0%,0%);fill-opacity:1;" d="M 359.566406 388.5 C 359.566406 391.535156 363.066406 407.863281 376.601562 464.335938 C 389.898438 519.398438 389.664062 518.933594 392 516.601562 C 393.164062 515.433594 390.363281 500.734375 385.933594 484.164062 C 381.5 467.363281 374.734375 441.234375 370.765625 425.835938 C 363.066406 395.734375 359.800781 384.765625 359.566406 388.5 Z M 359.566406 388.5 "/>
<path style=" stroke:none;fill-rule:nonzero;fill:rgb(0%,0%,0%);fill-opacity:1;" d="M 371 388.035156 C 371 388.964844 373.101562 394.101562 375.898438 399.464844 C 379.863281 407.164062 380.101562 409.265625 377.535156 410.898438 C 375.898438 412.066406 373.566406 413 372.398438 413 C 371.234375 413 370.765625 413.699219 371.464844 414.398438 C 372.398438 415.101562 374.964844 414.636719 377.765625 413.234375 C 381.964844 410.898438 383.601562 412.765625 396.664062 437.5 C 409.5 461.300781 415.335938 470.164062 415.335938 465.5 C 415.335938 464.566406 408.335938 451.734375 399.933594 436.800781 L 384.765625 409.734375 L 390.136719 405.300781 C 395.265625 401.335938 395.265625 401.101562 390.363281 403.433594 C 383.363281 406.933594 383.601562 407.164062 377.066406 395.964844 C 373.800781 390.601562 371 387.101562 371 388.035156 Z M 371 388.035156 "/>
<path style=" stroke:none;fill-rule:nonzero;fill:rgb(0%,0%,0%);fill-opacity:1;" d="M 347.664062 436.335938 C 346.964844 461.300781 346.734375 482.300781 346.964844 482.765625 C 349.535156 486.5 350 476 349.535156 436.101562 L 348.835938 390.835938 Z M 347.664062 436.335938 "/>
</g>
</svg>
