<?xml version="1.0" standalone="no"?>
<!DOCTYPE svg PUBLIC "-//W3C//DTD SVG 20010904//EN"
 "http://www.w3.org/TR/2001/REC-SVG-20010904/DTD/svg10.dtd">
<svg version="1.0" xmlns="http://www.w3.org/2000/svg"
 width="300.000000pt" height="300.000000pt" viewBox="0 0 300.000000 300.000000"
 preserveAspectRatio="xMidYMid meet">
<metadata>
Created by potrace 1.10, written by Peter Selinger 2001-2011
</metadata>
<g transform="translate(0.000000,300.000000) scale(0.100000,-0.100000)"
fill="#000000" stroke="none">
<path d="M1315 2198 c3 -7 32 -116 64 -242 33 -125 63 -231 66 -235 8 -7 9
-10 -55 252 -27 115 -50 215 -50 223 0 8 -7 14 -15 14 -8 0 -12 -6 -10 -12z"/>
<path d="M1646 2038 c-79 -288 -85 -312 -81 -316 4 -4 7 6 84 265 63 209 67
223 53 223 -5 0 -30 -78 -56 -172z"/>
<path d="M1500 1903 c0 -91 2 -164 4 -162 2 2 7 77 11 167 5 116 4 162 -4 162
-8 0 -11 -52 -11 -167z"/>
<path d="M990 2023 c1 -12 328 -349 333 -343 5 5 -309 342 -324 348 -5 2 -9 0
-9 -5z"/>
<path d="M1849 1843 c-184 -187 -162 -173 59 38 74 70 130 129 125 132 -5 3
-88 -73 -184 -170z"/>
<path d="M1220 1995 c0 -9 137 -248 155 -270 9 -11 -5 18 -30 65 -25 47 -60
113 -78 148 -26 52 -47 77 -47 57z"/>
<path d="M1706 1854 c-43 -74 -77 -137 -74 -139 3 -3 158 243 166 266 2 5 0 9
-5 9 -4 0 -43 -61 -87 -136z"/>
<path d="M1010 1791 c0 -6 151 -97 263 -158 4 -2 7 -2 7 0 0 3 -54 38 -120 78
-67 40 -123 76 -126 81 -7 11 -24 10 -24 -1z"/>
<path d="M1862 1708 c-67 -39 -121 -73 -118 -75 6 -6 255 130 256 140 0 13
-14 7 -138 -65z"/>
<path d="M790 1700 c0 -5 15 -13 33 -18 431 -116 423 -114 443 -150 58 -108
209 -160 339 -116 46 16 130 86 151 126 7 12 69 31 224 68 251 59 243 57 235
69 -3 6 -24 4 -53 -4 -26 -7 -127 -34 -226 -60 l-179 -45 -34 39 c-50 59 -141
101 -218 101 -77 0 -170 -43 -216 -99 l-30 -38 -227 68 c-125 38 -230 69 -234
69 -5 0 -8 -4 -8 -10z m826 -48 c58 -30 108 -85 99 -111 -8 -27 -86 -86 -132
-102 -45 -15 -139 -7 -184 16 -40 20 -109 84 -109 100 0 17 35 46 44 38 4 -5
6 -2 4 5 -1 8 6 19 17 25 11 7 22 15 25 18 3 3 23 13 45 22 51 22 137 17 191
-11z"/>
<path d="M1437 1639 c-37 -28 -54 -88 -36 -124 58 -119 239 -70 215 58 -14 77
-118 115 -179 66z m130 -21 c45 -42 36 -116 -18 -143 -51 -27 -99 -11 -124 42
-43 91 68 170 142 101z"/>
<path d="M1463 1598 c-21 -23 -29 -78 -12 -78 5 0 9 11 9 24 0 27 24 56 46 56
8 0 12 5 9 10 -10 16 -30 12 -52 -12z"/>
<path d="M930 1509 c0 -5 75 -9 168 -8 92 0 163 2 157 4 -24 8 -325 12 -325 4z"/>
<path d="M1751 1496 c10 -10 319 -16 319 -6 0 6 -56 10 -162 10 -89 0 -159 -2
-157 -4z"/>
<path d="M1210 1434 c-30 -7 -136 -33 -234 -57 -110 -26 -182 -49 -184 -57 -3
-9 1 -11 11 -7 9 3 123 33 254 67 130 34 239 63 242 66 8 7 -32 2 -89 -12z"/>
<path d="M1711 1436 c10 -10 491 -147 496 -142 4 3 4 8 2 10 -6 5 -479 136
-492 136 -5 0 -8 -2 -6 -4z"/>
<path d="M1165 1319 c-82 -44 -154 -85 -160 -90 -22 -22 16 -6 108 46 95 54
98 55 127 40 17 -9 30 -13 30 -11 0 3 -12 12 -26 19 l-27 14 47 24 c39 19 67
39 54 39 -2 0 -70 -36 -153 -81z"/>
<path d="M1670 1396 c0 -2 23 -18 51 -35 l50 -32 -23 -20 -23 -20 30 16 31 17
98 -62 c54 -34 100 -59 104 -56 7 8 16 2 -138 93 -155 92 -180 105 -180 99z"/>
<path d="M1177 1198 c-176 -166 -225 -218 -202 -218 7 0 421 409 414 410 -3 0
-98 -87 -212 -192z"/>
<path d="M1620 1376 c0 -5 35 -46 78 -90 42 -45 130 -136 194 -204 64 -67 119
-119 121 -115 3 4 -85 100 -194 213 -109 113 -199 201 -199 196z"/>
<path d="M1323 1213 c-44 -71 -89 -145 -102 -165 -12 -21 -18 -38 -13 -38 6 0
41 53 78 118 38 64 71 119 74 122 3 3 15 24 28 48 44 82 12 41 -65 -85z"/>
<path d="M1432 1273 c-75 -239 -142 -476 -138 -481 11 -10 18 7 56 145 21 76
54 196 74 267 38 138 43 183 8 69z"/>
<path d="M1541 1335 c0 -13 15 -83 73 -325 57 -236 56 -234 66 -224 5 5 -7 68
-26 139 -19 72 -48 184 -65 250 -33 129 -47 176 -48 160z"/>
<path d="M1590 1337 c0 -4 9 -26 21 -49 17 -33 18 -42 7 -49 -7 -5 -17 -9 -22
-9 -5 0 -7 -3 -4 -6 4 -3 15 -1 27 5 18 10 25 2 81 -104 55 -102 80 -140 80
-120 0 4 -30 59 -66 123 l-65 116 23 19 c22 17 22 18 1 8 -30 -15 -29 -16 -57
32 -14 23 -26 38 -26 34z"/>
<path d="M1490 1130 c-3 -107 -4 -197 -3 -199 11 -16 13 29 11 200 l-3 194 -5
-195z"/>
</g>
</svg>
