<?xml version="1.0" standalone="no"?>
<!DOCTYPE svg PUBLIC "-//W3C//DTD SVG 20010904//EN"
 "http://www.w3.org/TR/2001/REC-SVG-20010904/DTD/svg10.dtd">
<svg version="1.0" xmlns="http://www.w3.org/2000/svg"
 width="300.000000pt" height="300.000000pt" viewBox="0 0 300.000000 300.000000"
 preserveAspectRatio="xMidYMid meet">
<metadata>
Created by potrace 1.10, written by Peter Selinger 2001-2011
</metadata>
<g transform="translate(0.000000,300.000000) scale(0.100000,-0.100000)"
fill="#000000" stroke="none">
<path d="M1136 2823 c12 -52 43 -167 89 -343 26 -96 58 -220 71 -275 13 -55
33 -129 44 -165 10 -36 24 -85 30 -109 6 -23 13 -41 15 -39 5 4 -17 111 -55
263 -38 157 -100 419 -136 573 -23 100 -32 122 -46 122 -15 0 -17 -5 -12 -27z"/>
<path d="M1856 2833 c-3 -10 -21 -76 -41 -148 -19 -71 -53 -195 -75 -275 -22
-80 -51 -185 -64 -235 -13 -49 -36 -130 -50 -179 -14 -48 -26 -93 -26 -100 0
-27 31 52 55 142 15 53 39 138 55 187 15 50 47 153 70 230 22 77 57 191 77
253 33 106 37 142 14 142 -5 0 -12 -8 -15 -17z"/>
<path d="M1497 2584 c-3 -4 -6 -155 -5 -338 0 -389 13 -355 22 62 5 256 3 295
-17 276z"/>
<path d="M502 2497 c-9 -10 63 -87 335 -357 190 -190 332 -327 315 -305 -16
22 -59 70 -94 106 -34 36 -128 135 -208 220 -233 248 -325 344 -331 347 -3 1
-11 -3 -17 -11z"/>
<path d="M2290 2281 c-107 -107 -261 -259 -341 -338 l-145 -144 -86 41 c-74
36 -97 42 -176 47 -56 4 -115 1 -153 -6 -119 -24 -262 -115 -329 -210 -35 -50
-48 -59 -66 -42 -5 5 -45 19 -89 31 -44 12 -114 32 -155 45 -41 13 -138 42
-215 65 -77 23 -198 59 -269 81 -103 33 -130 38 -137 27 -4 -7 -5 -16 -1 -20
4 -4 66 -23 137 -42 72 -19 186 -50 255 -69 69 -19 179 -49 245 -66 66 -18
131 -36 145 -41 14 -5 44 -14 67 -20 30 -7 41 -15 37 -25 -8 -20 66 -120 128
-173 29 -25 90 -63 135 -84 73 -36 92 -40 180 -45 116 -7 187 8 294 62 83 42
200 154 220 210 8 22 21 37 34 40 71 16 793 189 838 202 14 4 26 33 13 33 -14
0 -394 -97 -566 -144 -47 -13 -128 -34 -180 -46 -52 -12 -99 -26 -104 -31 -16
-15 -34 -10 -41 11 -3 11 -40 53 -81 95 -42 41 -71 75 -65 75 6 0 32 21 59 48
26 26 117 112 202 192 84 80 201 190 259 246 58 56 123 116 144 134 30 26 35
35 26 46 -6 8 -14 13 -18 12 -3 -1 -94 -89 -201 -197z m-671 -466 c84 -20 169
-74 242 -153 32 -36 59 -68 59 -73 0 -18 -118 -134 -173 -170 -141 -91 -344
-91 -498 1 -74 44 -169 141 -169 172 0 22 136 165 147 154 3 -3 -2 -16 -13
-28 l-19 -22 26 20 c15 10 25 24 22 30 -2 6 21 22 51 37 93 46 216 57 325 32z"/>
<path d="M1414 1784 c-102 -50 -146 -134 -124 -240 41 -195 302 -228 395 -51
72 138 -31 307 -186 307 -30 0 -68 -7 -85 -16z m154 -35 c69 -30 95 -69 100
-145 6 -87 -25 -142 -97 -173 -62 -26 -90 -26 -149 -1 -99 43 -137 170 -75
258 24 35 57 57 113 76 31 10 63 5 108 -15z"/>
<path d="M1454 1704 c-58 -28 -78 -59 -79 -117 0 -41 4 -52 18 -55 10 -2 17 3
17 12 0 9 -5 16 -12 16 -9 0 -9 3 0 12 7 7 12 19 12 29 0 26 39 69 64 69 27 0
46 18 39 36 -7 18 -20 17 -59 -2z"/>
<path d="M1100 1591 c8 -5 34 -12 58 -16 23 -4 42 -11 42 -16 0 -5 7 -9 15 -9
37 0 9 19 -50 34 -71 18 -87 20 -65 7z"/>
<path d="M1820 1576 c-25 -6 -54 -17 -65 -24 -17 -11 -15 -12 20 -6 22 4 45 9
50 13 6 3 26 11 45 17 45 15 9 15 -50 0z"/>
<path d="M1138 1545 c6 -11 30 -38 53 -60 43 -39 43 -39 -6 15 -27 30 -51 57
-53 60 -3 3 0 -4 6 -15z"/>
<path d="M950 2431 c0 -11 5 -23 10 -26 6 -4 26 -37 46 -73 19 -37 55 -101 79
-142 24 -41 71 -125 105 -186 33 -62 68 -118 77 -125 9 -8 0 15 -19 51 -20 36
-69 126 -108 200 -155 289 -172 320 -181 320 -5 0 -9 -9 -9 -19z"/>
<path d="M2000 2358 c-24 -40 -55 -93 -70 -118 -15 -25 -46 -79 -70 -120 -24
-41 -60 -102 -80 -135 -35 -58 -63 -115 -57 -115 5 0 134 208 302 486 16 27
33 51 37 52 10 4 0 22 -11 22 -5 0 -28 -33 -51 -72z"/>
<path d="M2050 2220 l-75 -6 62 -2 c57 -2 64 -4 77 -29 l15 -28 1 38 c0 20 -1
36 -2 35 -2 -1 -37 -4 -78 -8z"/>
<path d="M860 2205 c0 -17 11 -20 26 -5 5 5 43 11 84 13 l75 3 -92 2 c-77 2
-93 -1 -93 -13z"/>
<path d="M1153 2213 c20 -2 54 -2 75 0 20 2 3 4 -38 4 -41 0 -58 -2 -37 -4z"/>
<path d="M1367 2213 c18 -2 50 -2 70 0 21 2 7 4 -32 4 -38 0 -55 -2 -38 -4z"/>
<path d="M1557 2213 c18 -2 50 -2 70 0 21 2 7 4 -32 4 -38 0 -55 -2 -38 -4z"/>
<path d="M1778 2213 c23 -2 59 -2 80 0 20 2 1 4 -43 4 -44 0 -61 -2 -37 -4z"/>
<path d="M544 2049 c-8 -13 -22 -3 136 -94 74 -43 151 -88 170 -100 61 -38
154 -92 187 -109 79 -40 33 -1 -73 62 -27 16 -110 66 -184 112 -220 135 -229
140 -236 129z"/>
<path d="M863 1980 c0 -47 2 -66 4 -42 2 23 2 61 0 85 -2 23 -4 4 -4 -43z"/>
<path d="M2124 1960 c0 -52 1 -74 3 -47 2 26 2 68 0 95 -2 26 -3 4 -3 -48z"/>
<path d="M2425 2021 c-6 -5 -91 -55 -190 -111 -283 -160 -353 -204 -297 -183
9 4 37 18 62 31 25 14 75 41 111 61 36 20 127 69 202 109 78 42 137 79 137 88
0 16 -12 18 -25 5z"/>
<path d="M863 1760 c0 -36 2 -50 4 -32 2 17 2 47 0 65 -2 17 -4 3 -4 -33z"/>
<path d="M2123 1745 c0 -38 2 -53 4 -32 2 20 2 52 0 70 -2 17 -4 1 -4 -38z"/>
<path d="M2123 1555 c0 -33 2 -45 4 -27 2 18 2 45 0 60 -2 15 -4 0 -4 -33z"/>
<path d="M390 1505 c0 -13 23 -15 153 -15 83 -1 216 -3 295 -6 129 -5 202 -1
190 11 -2 3 -123 7 -269 10 -145 3 -288 8 -316 10 -43 4 -53 2 -53 -10z"/>
<path d="M1955 1480 c-5 -8 131 -16 448 -25 126 -3 187 -2 187 5 0 6 -6 12
-12 15 -24 7 -619 12 -623 5z"/>
<path d="M861 1416 c-1 -49 6 -58 14 -17 2 12 0 32 -5 44 -7 17 -9 12 -9 -27z"/>
<path d="M2123 1390 c0 -36 2 -50 4 -32 2 17 2 47 0 65 -2 17 -4 3 -4 -33z"/>
<path d="M975 1365 c-55 -13 -145 -34 -200 -48 -55 -13 -170 -41 -255 -61
-399 -95 -408 -98 -403 -115 4 -16 14 -15 111 12 59 15 175 46 257 67 139 36
349 91 555 146 110 29 65 28 -65 -1z"/>
<path d="M1895 1360 c147 -45 348 -105 435 -130 202 -58 407 -120 449 -134 56
-20 71 -20 71 2 0 14 -25 23 -128 49 -70 18 -185 49 -257 69 -71 20 -179 49
-239 65 -60 16 -138 38 -174 49 -75 23 -188 50 -205 49 -7 0 15 -9 48 -19z"/>
<path d="M865 1149 c-357 -191 -350 -188 -337 -201 8 -8 19 -5 39 8 15 10 58
35 96 56 37 21 100 57 140 79 39 23 90 51 112 64 204 115 271 155 260 155 -5
0 -145 -73 -310 -161z"/>
<path d="M1815 1283 c17 -9 32 -19 35 -23 3 -4 30 -22 60 -39 30 -18 84 -50
120 -73 36 -22 115 -71 175 -108 61 -37 133 -82 162 -100 28 -17 57 -29 63
-25 12 7 -24 32 -150 105 -41 24 -95 56 -120 71 -25 15 -65 39 -90 53 -86 50
-185 108 -225 132 -22 13 -44 24 -50 23 -5 0 4 -7 20 -16z"/>
<path d="M860 1242 c0 -33 4 -51 10 -47 13 8 13 65 0 85 -7 11 -10 0 -10 -38z"/>
<path d="M1193 1208 c-83 -77 -181 -170 -262 -248 -20 -19 -106 -100 -190
-180 -296 -278 -283 -266 -269 -277 10 -8 106 81 418 388 223 219 402 399 398
399 -4 0 -47 -37 -95 -82z"/>
<path d="M2120 1265 c-1 -5 -4 -25 -4 -44 -2 -24 -8 -37 -22 -42 -17 -7 -17
-8 4 -8 27 -1 35 15 29 65 -2 22 -5 35 -7 29z"/>
<path d="M1741 1213 c24 -27 48 -52 55 -58 6 -5 85 -89 175 -185 90 -96 175
-186 189 -200 14 -14 85 -90 159 -168 122 -129 156 -157 156 -124 0 11 -761
782 -772 782 -3 0 14 -21 38 -47z"/>
<path d="M1556 1182 c-4 -7 -3 -12 2 -12 5 0 14 -30 21 -67 6 -38 27 -131 46
-208 19 -77 52 -216 75 -310 114 -478 113 -475 133 -475 14 0 17 5 11 23 -9
29 -65 241 -116 437 -21 85 -55 216 -75 290 -19 74 -44 171 -55 215 -25 104
-32 122 -42 107z"/>
<path d="M1251 1100 c-28 -44 -52 -83 -53 -87 -1 -5 -6 -12 -10 -18 -8 -9 -47
-72 -143 -230 -22 -36 -61 -98 -86 -138 -28 -43 -43 -76 -38 -81 11 -12 26 7
69 84 17 30 51 89 75 130 25 41 56 95 70 120 14 25 48 81 75 125 54 88 102
175 97 175 -2 0 -27 -36 -56 -80z"/>
<path d="M1375 1108 c-10 -40 -24 -89 -32 -108 -8 -19 -24 -69 -35 -110 -10
-41 -35 -127 -55 -190 -19 -63 -50 -167 -69 -230 -19 -63 -51 -165 -70 -226
-18 -61 -34 -114 -34 -118 0 -3 9 -6 20 -6 12 0 22 9 25 23 33 133 93 353 170
627 20 69 49 179 65 245 17 66 35 128 40 137 12 22 13 28 1 28 -5 0 -17 -33
-26 -72z"/>
<path d="M1676 1128 c15 -29 30 -55 33 -58 4 -3 22 -34 39 -70 17 -36 52 -101
77 -145 24 -44 77 -140 116 -213 52 -98 74 -131 82 -123 8 8 7 19 -6 39 -9 15
-42 72 -73 127 -141 250 -284 495 -290 495 -3 0 8 -24 22 -52z"/>
<path d="M1966 1115 c-10 -8 -24 -16 -30 -18 -6 -2 -8 -7 -5 -11 4 -4 24 4 44
19 21 14 32 25 24 25 -8 0 -23 -7 -33 -15z"/>
<path d="M1466 762 c-4 -180 -8 -338 -9 -352 -1 -16 3 -25 12 -25 12 0 15 57
19 346 3 226 1 348 -6 353 -6 4 -12 -106 -16 -322z"/>
<path d="M1694 971 c-48 -29 -52 -46 -5 -19 22 12 41 26 41 31 0 10 -1 9 -36
-12z"/>
<path d="M1548 897 c-16 -6 -28 -14 -28 -19 0 -14 21 -9 47 12 28 22 23 24
-19 7z"/>
</g>
</svg>
